<svg width="599" height="544" viewBox="0 0 599 544" fill="none" xmlns="http://www.w3.org/2000/svg">
<g opacity="0.1">
<path d="M645.326 276.94C665.158 350.952 642.346 399.8 562.32 421.243C545.821 425.664 496.946 437.715 459.97 445.563C438.239 450.182 416.679 436.888 410.897 415.311C404.744 392.345 418.723 368.895 441.755 363.61C471.778 356.706 507.063 347.948 518.218 344.959C546.812 337.298 553.704 327.088 546.323 299.54L500.039 126.807L598.031 100.55L645.313 277.007L645.326 276.94Z" fill="#E5E7EB"/>
<path d="M572.253 -4.38119e-05L596.488 90.4456L479.062 121.91L370.601 367.787L219.532 408.265L327.993 162.389L156.521 208.334L197.957 100.292L572.253 -4.38119e-05Z" fill="#E5E7EB"/>
<path d="M406.672 463.773L107.763 543.865L-4.40682e-05 153.43L106.153 124.986L186.746 425.762L372.984 375.86C361.463 388.641 356.453 406.932 361.268 424.903L361.522 425.848C367.645 447.175 383.031 462.441 406.672 463.773Z" fill="#E5E7EB"/>
</g>
</svg>
