<svg width="60" height="41" viewBox="0 0 60 41" fill="none" xmlns="http://www.w3.org/2000/svg">
<path d="M59.8892 28.9871C59.8892 36.7417 56.3773 40.9195 47.9871 40.9195C46.2573 40.9195 41.1604 40.8173 37.3376 40.616C35.0908 40.4983 33.3303 38.634 33.3303 36.3732C33.3303 33.9669 35.3124 32.0406 37.7039 32.1273C40.8218 32.2388 44.5029 32.307 45.6725 32.307C48.6704 32.307 49.6122 31.4894 49.6122 28.6031V10.5047H59.8861V28.9933L59.8892 28.9871Z" fill="black"/>
<path d="M60 0V9.47655H47.6885L30.634 30.6718H14.7953L31.8498 9.47655H13.872L20.7572 0H60Z" fill="black"/>
<path d="M31.6467 41H0.307787L0 0.00929073H11.1296V31.5235H30.6556C29.1936 32.4711 28.2241 34.128 28.2241 36.0109V36.11C28.2641 38.3552 29.369 40.2505 31.6467 41Z" fill="black"/>
</svg>
