<svg width="100" height="100" viewBox="0 0 100 100" fill="none" xmlns="http://www.w3.org/2000/svg">
<g clip-path="url(#clip0_44_136)">
<path d="M39.7909 100L44.3449 39.5068L19.9124 30.4055L10.8719 43.804L6.30103 24.3091L27.4124 20.2399L24.1354 24.9341L50.3078 34.5828L77.2537 25.5338L73.9834 19.1149L94.0712 25.7298L86.9193 45.2466L80.3753 32.4595L55.3179 39.8446L60.8619 100H39.7909Z" fill="#F2E6CE"/>
<path d="M36.9699 41.1961C36.9699 39.8447 32.4759 35.6613 28.186 37.6488C16.6084 43.0127 36.6455 45.9326 36.6455 45.9326L36.0205 47.9292L40.9429 49.1792L43.8445 0H37.8603L36.9699 41.1961Z" fill="#333333"/>
<path d="M58.4463 49.3548L62.8618 48.6656L62.2368 46.8446C62.2368 46.8446 81.8895 45.4278 73.125 39.3751C67.3703 35.4009 62.0679 41.6453 62.0679 41.6453L61.8878 0H55.7876L58.4463 49.3548Z" fill="#333333"/>
</g>
<defs>
<clipPath id="clip0_44_136">
<rect width="100" height="100" fill="white"/>
</clipPath>
</defs>
</svg>
