<svg width="100" height="100" viewBox="0 0 100 100" fill="none" xmlns="http://www.w3.org/2000/svg">
<path opacity="0.11" d="M83.1102 80.7086H24.9212C23.0807 80.7086 21.5747 81.8859 21.5747 83.3247C21.5747 84.321 22.2971 85.1915 23.3523 85.6329H18.2283C16.3877 85.6329 14.8818 86.8102 14.8818 88.249C14.8818 89.6878 16.3877 90.8651 18.2283 90.8651H20.0137C19.5151 91.3222 19.2125 91.9136 19.2125 92.5578V93.6043C19.2125 95.0431 20.7185 96.2204 22.559 96.2204H79.8818C81.7224 96.2204 83.2283 95.0431 83.2283 93.6043V92.5578C83.2283 91.119 81.7224 89.9418 79.8818 89.9418L75.9842 90C76.2811 90 76.7632 89.8169 77.0866 89.4488C77.6536 88.8033 77.6788 87.821 77.4015 87.0078C77.2218 86.4807 76.9338 86.0626 76.2204 85.9055L83.1102 85.9407C84.9507 85.9407 86.4566 84.7635 86.4566 83.3247C86.4566 81.8859 84.9507 80.7086 83.1102 80.7086Z" fill="#606060"/>
<path d="M28.9763 20.3937L41.181 14.5669L50.6299 18.7401L39.7637 19.5275L34.8031 26.5354L28.9763 20.3937Z" fill="#E7DED5"/>
<path d="M34.8031 26.5354L39.7637 19.5275L50.6299 18.7401C50.6299 18.7401 40 21.3385 34.8031 26.5354Z" fill="#C7C3BC"/>
<path d="M23.3858 6.29919L13.622 12.126L10.2362 13.1496L19.3701 17.559L25.5118 14.8031L30.9449 12.126L23.3858 6.29919Z" fill="#E7DED5"/>
<path d="M59.0551 3.77954C59.0551 3.77954 50.8661 8.11025 51.0236 8.11025C51.1811 8.11025 59.0551 12.5984 59.0551 12.5984L62.4409 15.5118L70 12.6772L59.0551 3.77954Z" fill="#C7C3BC"/>
<path d="M57.1654 11.3386L63.3071 15.5118C63.3071 15.5118 70.5512 11.496 70.315 11.3386C70.0787 11.1811 62.9134 6.22044 62.9134 6.22044L60.1575 2.51965L51.8898 6.85036L57.1654 11.3386Z" fill="#E7DED5"/>
<path d="M58.3168 35.9633L60.1574 23.937L59.2125 13.5433H56.2204L55.1181 23.937L52.8346 31.7323L58.3168 35.9633Z" fill="#A0A4A9"/>
<path d="M47.6473 32.2053L39.0551 26.1417L32.0473 17.0865L29.6063 18.5039L35.9843 30.5511L46.5164 38.4649L48.8189 34.7243L47.6473 32.2053Z" fill="#A0A4A9"/>
<path d="M57.1366 81.7745L57.1062 85.3956L57.8862 86.2682L57.8809 86.8979L55.9949 86.4884L55.1316 86.1663L54.5442 81.1228L57.1366 81.7745Z" fill="#B99A6F"/>
<path d="M57.1063 85.3955L59.7649 87.5434L59.6782 88.4874L57.7102 88.4709L54.9682 86.8733L54.822 85.5337L55.0601 85.2996C55.0601 85.2996 57.5693 86.5015 57.7274 86.4241C57.8856 86.3467 57.1063 85.3955 57.1063 85.3955Z" fill="#273140"/>
<path d="M50.786 52.2362L53.038 67.276L54.0423 82.327L57.5544 82.7613L59.3434 62.3985L60.1329 48.1521L50.786 52.2362Z" fill="#273140"/>
<path d="M46.7647 81.1094L45.8275 85.4837L46.4078 86.5L46.2709 87.1148L44.5122 86.32L43.7354 85.8245L44.2154 80.7697L46.7647 81.1094Z" fill="#B99A6F"/>
<path d="M45.7468 85.3693L48.2979 87.644L48.1654 88.5827L46.2005 88.4704L43.5394 86.7415L43.4585 85.3964L43.7078 85.1741C43.7078 85.1741 46.1555 86.4966 46.3172 86.427C46.479 86.3574 45.7468 85.3693 45.7468 85.3693Z" fill="#273140"/>
<path d="M53.8422 55.3728L51.9924 68.3216L46.845 81.8333H43.7802L45.7995 66.3913L44.8344 54.7294L45.2365 50.8689L53.8422 55.3728Z" fill="#273140"/>
<path d="M45.4778 50.1451C46.6842 46.6063 46.2821 39.5287 46.2821 36.0704C46.2821 34.7089 46.6351 33.1816 47.6473 32.2053C48.7873 31.1059 50.343 31.2808 51.8065 31.3268C54.3106 31.4055 55.8938 32.2215 57.3855 34.2446C57.4559 34.3401 57.5254 34.4364 57.5942 34.533C59.8883 37.7543 62.4677 55.0845 62.4677 55.0845C62.4677 55.0845 58.894 59.9235 54.2865 58.5754C50.7316 57.5353 46.6791 57.4004 43.4146 57.4659C42.6382 57.2267 44.2714 53.6839 45.4778 50.1451Z" fill="#A0A4A9"/>
<path d="M50.4316 31.3241L49.5796 32.1295L55.129 40.896L54.6464 35.1857L53.942 32.2417L53.4771 31.5777L50.4316 31.3241Z" fill="#C5CCCC"/>
<path d="M53.0831 25.3764C51.5919 22.5427 47.8144 24.2739 47.4112 27.0642C47.1482 28.8843 48.8386 30.9327 50.7167 31.1539C50.7351 31.2211 50.751 31.2842 50.7596 31.3383C50.8039 31.6171 50.8807 31.8869 50.9651 32.1592C50.9966 32.2608 52.526 31.7146 52.6964 31.6529C52.756 31.6313 52.822 31.604 52.8471 31.5473C52.8954 31.4385 52.7471 31.1631 52.7186 31.0549C52.6849 30.9272 52.6512 30.7995 52.6176 30.6717C53.439 30.1009 53.8571 29.0909 53.8686 28.1265C53.88 27.1577 53.5312 26.228 53.0831 25.3764Z" fill="#B99A6F"/>
<path d="M50.0884 23.0701C49.9098 23.3179 49.8728 23.6307 49.8562 23.9281C49.8462 24.1057 49.8423 24.2886 49.9054 24.4532C50.157 25.1099 50.8253 24.9705 51.3801 25.109C52.0643 25.2798 52.6952 25.6915 53.1434 26.2085C53.8452 27.0181 53.7698 28.2109 53.6939 29.235C53.6671 29.596 53.5851 30.1391 53.9033 30.4083C54.2267 30.6817 54.854 30.5349 55.1578 30.3217C55.4354 30.1268 55.6399 29.8141 55.9614 29.7079C56.3017 29.5955 56.7975 29.6763 56.9106 29.3307C56.9421 29.2346 56.9294 29.1249 56.9739 29.0345C57.1243 28.7287 57.6543 28.9778 57.8962 28.7413C58.045 28.5958 58.0044 28.341 57.9167 28.1479C57.829 27.9549 57.7022 27.765 57.7099 27.5537C57.7165 27.372 57.8223 27.2129 57.8762 27.0403C57.9826 26.6993 57.8653 26.2946 57.5926 26.0626C57.0857 25.6312 56.2679 25.8542 55.7347 25.4571C55.457 25.2502 55.3096 24.9127 55.1688 24.5936C55.0279 24.2745 54.8662 23.94 54.5748 23.754C54.2147 23.5242 53.7643 23.6423 53.4005 23.36C53.1867 23.1941 53.0251 22.9602 52.7928 22.8231C52.4865 22.6423 51.9285 22.553 51.5728 22.4916C51.0087 22.3938 50.4264 22.6011 50.0884 23.0701Z" fill="#363636"/>
<path d="M48.3264 28.2313C48.4601 29.219 49.1137 30.2083 48.7938 31.1454C48.4709 32.091 47.3538 32.425 46.388 32.6207C46.2292 32.6529 44.2286 33.115 44.1887 33.1095C42.9027 32.9315 43.4885 31.8776 43.2105 31.225C42.811 30.2868 41.5654 31.2626 41.3892 30.3344C41.582 30.2694 41.6445 30.0116 41.59 29.8106C41.5355 29.6097 41.4012 29.4416 41.3097 29.2546C41.0848 28.7951 41.1442 28.2092 41.4558 27.8138C42.0776 27.0247 43.4379 27.1027 43.9404 26.2291C44.252 25.6874 44.0981 24.9953 44.2096 24.3755C44.4251 23.1771 45.6344 22.7466 46.4864 22.0889C47.3857 21.3946 48.2656 20.9544 49.4294 20.9683C50.8723 20.9857 52.1388 22.2564 51.8043 23.6877C51.3753 25.5235 48.5706 25.8037 48.3205 27.639C48.2938 27.8361 48.2997 28.0336 48.3264 28.2313Z" fill="#363636"/>
<path d="M56.624 13.5433L56.1417 11.1319C56.1417 11.1319 57.1063 10.2362 57.313 10.2362C57.5197 10.2362 58.8287 10.9941 58.8287 10.9941L58.4153 11.4075L57.1752 11.3386L59.0551 12.5984L58.8631 13.5433H56.624Z" fill="#B99A6F"/>
<path d="M31.5564 17.4376L32.2047 15.2755L31.4027 13.5068L30.6299 13.307V14.8818L27.0866 14.0157L25.748 15.3543L29.9342 18.3795L31.5564 17.4376Z" fill="#B99A6F"/>
<path d="M14.1732 29.7637L22.2835 24.7244L34.8031 32.2047L30.3937 34.8031L22.7559 34.4094L14.1732 29.7637Z" fill="#E7DED5"/>
<path d="M22.7559 34.4093L29.6063 31.7322L30.3937 34.803L22.7559 34.4093Z" fill="#C7C3BC"/>
<path d="M67.2441 84.4881L81.6536 80.7086L89.3701 85.2755L73.7796 90.8661L67.2441 84.4881Z" fill="#D6CEC6"/>
<path d="M66.0629 86.8503L84.7243 88.5826L80.4724 95.5118L63.1495 93.937L66.0629 86.8503Z" fill="#E7DED5"/>
<path d="M69.2914 45.0394L81.1024 37.7953L91.0237 40.6299L82.5985 47.0866L72.8347 48.189L69.2914 45.0394Z" fill="#E7DED5"/>
<path d="M82.5985 47.0866C82.5985 47.0866 77.2442 46.5354 75.9056 44.7244C75.9056 44.7244 73.7009 46.6141 72.8347 48.1889L82.5985 47.0866Z" fill="#C7C3BC"/>
<path d="M28.1889 70.4724L20.5511 73.8582L30.3937 81.811L35.8267 82.7559L43.2283 78.8976L36.063 74.8031L31.8897 70.4724H28.1889Z" fill="#D6CEC6"/>
<path d="M35.8354 74.5669L34.3307 75.8268L24.5841 72.0705C24.5841 72.0705 29.1339 70.7874 29.6063 70.8662C30.0788 70.9449 34.8618 73.5567 34.8618 73.5567L35.8354 74.5669Z" fill="#B5B1AB"/>
<path d="M30.3937 81.8109C30.3937 81.8109 35.3543 80.7086 36.7716 79.2913C36.7716 79.2913 38.5827 81.0235 39.8031 80.5511L35.8267 82.7558L30.3937 81.8109Z" fill="#B5B1AB"/>
<path d="M16.4567 87.0866L26.5354 92.5197L41.1811 88.5039L31.8897 84.0157L16.4567 87.0866Z" fill="#E7DED5"/>
<path d="M32.5197 60.7086L26.2205 68.8189C26.2205 68.8189 21.2599 71.4173 21.8111 71.4173C22.3622 71.4173 34.0158 74.5669 34.0158 74.5669L39.2914 68.2677L42.1433 65.0133L32.5197 60.7086Z" fill="#E7DED5"/>
</svg>
