<?xml version="1.0" encoding="UTF-8"?>
<svg id="Layer_2" data-name="Layer 2" xmlns="http://www.w3.org/2000/svg" viewBox="0 0 545.95 370.79">
  <defs>
    <style>
      .cls-1 {
        fill: #f7c74b;
      }
    </style>
  </defs>
  <g id="Layer_3" data-name="Layer 3">
    <path class="cls-1" d="M544.94,262.14c0,70.11-31.94,107.9-108.29,107.9-15.75,0-62.12-.91-96.89-2.74-20.44-1.08-36.47-17.92-36.47-38.38h0c0-21.77,18.05-39.18,39.8-38.4,28.38,1.02,61.86,1.62,72.52,1.62,27.27,0,35.84-7.4,35.84-33.5V94.96h93.49v167.18ZM188.88,0l-62.66,85.7h163.59l-155.18,191.68h144.12l155.18-191.68h112.03V0H188.88ZM279.22,326.56v-.9c0-17.03,8.82-29.21,22.12-37.78H101.27V.09H0l2.8,370.69h307.57c-20.73-6.78-30.78-23.92-31.14-44.22Z"/>
  </g>
</svg>